<?xml version="1.0" encoding="utf-8"?>
<!-- Generator: Adobe Illustrator 21.1.0, SVG Export Plug-In . SVG Version: 6.00 Build 0)  -->
<svg version="1.1" id="圖層_1" xmlns="http://www.w3.org/2000/svg" xmlns:xlink="http://www.w3.org/1999/xlink" x="0px" y="0px"
	 viewBox="0 0 1246.2 370.1" style="enable-background:new 0 0 1246.2 370.1;" xml:space="preserve">
<style type="text/css">
	.st0{fill:#875438;}
	.st1{fill:#A8C265;}
	.st2{fill:#EE7A67;}
	.st3{fill:#F2BC70;}
	.st4{fill:#D65843;}
	.st5{fill:#FFFFFF;}
	.st6{fill:none;stroke:#875438;stroke-width:20;stroke-linecap:round;stroke-linejoin:round;stroke-miterlimit:10;}
</style>
<g>
	<path class="st0" d="M692.8,284.6c-31.9-0.2-57.3-16.4-75.5-48.3c-7.7-13.6-12.5-27.3-15.3-37.1c-0.3-0.9,0.4-1.8,1.4-1.8l70.5,0.1
		c5.3,0,10-4,10.3-9.3c0.4-5.8-4.2-10.7-10-10.7l-76.1-0.1c-0.8,0-1.5-0.7-1.4-1.6c2.4-21.6,2.4-40.6,2.1-51.4
		c0-0.8,0.6-1.5,1.4-1.5l33.1,0.1c5.3,0,10-4,10.3-9.3c0.4-5.8-4.2-10.7-10-10.7l-89.4-0.1c-5.3,0-10,4-10.3,9.3
		c-0.4,5.8,4.2,10.7,10,10.7l33.4,0.1c0.8,0,1.4,0.6,1.4,1.4c0.3,9.9,0.4,28.3-1.9,49.2c-0.1,0.9-0.2,1.7-0.3,2.6
		c-0.1,0.7-0.7,1.3-1.4,1.2l-71.6-0.1c-5.3,0-10,4-10.3,9.3c-0.4,5.8,4.2,10.7,10,10.7l68.3,0.1c0.9,0,1.6,0.8,1.4,1.7
		c-4.8,22.9-13.3,47.4-28.7,64c-12.8,13.8-28.5,20.5-48.2,20.5c-5.4,0-10.1,4.3-10.2,9.7c-0.2,5.6,4.4,10.3,10,10.3
		c25.3,0,46.5-9,63.1-26.9c13.2-14.2,22.1-32.6,28.1-51.9c0.4-1.3,2.1-1.3,2.6-0.1c2.7,6.7,6,13.9,10.1,21.1
		c21.7,38.5,54.1,58.9,93.5,59c5.9,0,10.6-5,10-11C702.6,288.4,698,284.6,692.8,284.6z"/>
	<path class="st0" d="M917.6,229.9l-34-53.4c-0.6-0.9,0.1-2.2,1.2-2.2l23.7,0c5,0,9.5-3.5,10.2-8.5c0.9-6.2-3.9-11.5-9.9-11.5
		l-33.5-0.1c-0.8,0-1.4-0.6-1.4-1.4L874,114c0-5-3.5-9.5-8.5-10.2c-6.2-0.9-11.5,3.9-11.5,9.9l-0.1,48c0,0.2-0.1,0.4-0.1,0.6
		l-34.2,68.9c-2.5,4.9-0.4,10.9,4.5,13.4c1.4,0.7,2.9,1,4.4,1c3.7,0,7.2-2,9-5.6l26.4-53.2c0.5-1,1.9-1.1,2.5-0.1l34.5,54.2
		c1.9,3,5.1,4.6,8.4,4.6c2.2,0,4.4-0.7,6.3-2.2C919.7,240.1,920.4,234.2,917.6,229.9z"/>
	
		<ellipse transform="matrix(1.598880e-03 -1 1 1.598880e-03 461.6714 1037.5181)" class="st0" cx="750.4" cy="287.6" rx="17.4" ry="17.4"/>
	<path class="st0" d="M1154.5,143.7l-186.7-0.3c-5.3,0-10,4-10.3,9.3c-0.4,5.8,4.2,10.7,10,10.7l21.9,0c0.8,0,1.4,0.6,1.4,1.4
		l-0.2,130.2c0,5.5,4.5,10,10,10l120.7,0.2c5.5,0,10-4.5,10-10l0.2-130.2c0-0.8,0.6-1.4,1.4-1.4l21.2,0c5.3,0,10-4,10.3-9.3
		C1164.8,148.6,1160.2,143.7,1154.5,143.7z M1109.8,285.3l-97.8-0.2c-0.8,0-1.4-0.6-1.4-1.4l0.1-67.8c0-0.8,0.6-1.4,1.4-1.4
		l65.6,0.1c4.3,0,8-3.2,8.3-7.5c0.3-4.7-3.4-8.5-8-8.5l-65.8-0.1c-0.8,0-1.4-0.6-1.4-1.4l0.1-32.2c0-0.8,0.6-1.4,1.4-1.4l97.8,0.2
		c0.8,0,1.4,0.6,1.4,1.4l-0.2,118.8C1111.3,284.6,1110.6,285.3,1109.8,285.3z"/>
	<path class="st0" d="M840.4,106.5c-1.9-1.9-4.6-2.9-7.3-2.9l-55-0.1c-3.4,0-6.6,1.7-8.5,4.6l-27.3,43c-2.9,4.5-1.9,10.6,2.4,13.7
		c4.7,3.4,11.3,2.1,14.3-2.7l24.1-38c0.3-0.4,0.7-0.7,1.2-0.7l30.4,0c1.1,0,1.7,1.1,1.3,2.1l-13.8,27.1l-15.3,0h0
		c-3,0-5.7,1.9-6.6,4.7c-1.5,4.8,2,9.3,6.6,9.3l5.9,0c1.1,0,1.7,1.1,1.3,2.1l-8.3,16.3c-0.2,0.5-0.7,0.8-1.3,0.8l-26.4,0
		c-3.8,0-7.2,2.9-7.3,6.8c-0.1,4,3,7.2,7,7.2l18.2,0c1.1,0,1.7,1.1,1.3,2.1L762.6,231c-2.4,4.7-1,10.6,3.5,13.3
		c1.6,1,3.4,1.5,5.2,1.5c3.7,0,7.2-2,8.9-5.5l62-122.2C844.2,114.3,843.6,109.6,840.4,106.5z"/>
	<path class="st1" d="M885.5,143.2c36.7,0,32.7-31.1,32.5-32.4l0,0c0,0,0,0,0,0c0,0,0,0,0,0l0,0
		C916.7,110.5,885.6,106.4,885.5,143.2L885.5,143.2C885.5,143.2,885.5,143.2,885.5,143.2C885.5,143.2,885.5,143.2,885.5,143.2
		L885.5,143.2z"/>
	<path class="st1" d="M1090.7,134.3c74.6,5.9,71.5-58,71.3-60.8l0,0c0,0,0,0,0,0c0,0,0,0,0,0l0,0
		C1159.3,72.9,1096.6,59.7,1090.7,134.3l-0.1,0C1090.6,134.3,1090.6,134.3,1090.7,134.3C1090.6,134.3,1090.6,134.3,1090.7,134.3
		L1090.7,134.3z"/>
	
		<ellipse transform="matrix(1.598880e-03 -1 1 1.598880e-03 517.2221 1093.3359)" class="st0" cx="806.2" cy="287.6" rx="17.4" ry="17.4"/>
	
		<ellipse transform="matrix(1.598880e-03 -1 1 1.598880e-03 572.7729 1149.1537)" class="st0" cx="861.9" cy="287.7" rx="17.4" ry="17.4"/>
	
		<ellipse transform="matrix(1.598880e-03 -1 1 1.598880e-03 628.3237 1204.9716)" class="st0" cx="917.6" cy="287.8" rx="17.4" ry="17.4"/>
</g>
<g>
	<g>
		<path class="st0" d="M673.7,334.1l13.4,20.3l0-20.4c0-1.3,0.3-2.3,0.9-3c0.6-0.7,1.3-1,2.3-1c1,0,1.8,0.3,2.4,1
			c0.6,0.7,0.9,1.7,0.9,3l0,27c0,3-1.3,4.5-3.8,4.5c-0.6,0-1.2-0.1-1.7-0.3c-0.5-0.2-1-0.5-1.4-0.9c-0.4-0.4-0.8-0.8-1.2-1.4
			c-0.4-0.5-0.7-1.1-1.1-1.6l-13-20l0,20.1c0,1.3-0.3,2.3-0.9,3c-0.6,0.7-1.4,1-2.3,1c-1,0-1.8-0.3-2.4-1s-0.9-1.7-0.9-3l0-26.5
			c0-1.1,0.1-2,0.4-2.6c0.3-0.7,0.8-1.3,1.5-1.7c0.7-0.4,1.4-0.7,2.2-0.7c0.6,0,1.2,0.1,1.6,0.3c0.4,0.2,0.8,0.5,1.2,0.8
			c0.3,0.3,0.7,0.8,1,1.3C673,332.9,673.3,333.5,673.7,334.1z"/>
		<path class="st0" d="M716.8,361.9c-1.5,1.2-3,2.1-4.5,2.7s-3.1,0.9-4.9,0.9c-1.6,0-3.1-0.3-4.3-1s-2.2-1.5-2.9-2.6
			c-0.7-1.1-1-2.3-1-3.6c0-1.8,0.6-3.2,1.7-4.5s2.6-2.1,4.6-2.5c0.4-0.1,1.4-0.3,3-0.6c1.6-0.3,3-0.6,4.1-0.9c1.1-0.3,2.4-0.6,3.7-1
			c-0.1-1.7-0.4-2.9-1-3.7c-0.6-0.8-1.8-1.2-3.7-1.2c-1.6,0-2.8,0.2-3.7,0.7c-0.8,0.5-1.5,1.1-2.1,2c-0.6,0.9-1,1.5-1.2,1.8
			c-0.2,0.3-0.8,0.4-1.6,0.4c-0.7,0-1.3-0.2-1.9-0.7c-0.5-0.5-0.8-1.1-0.8-1.8c0-1.1,0.4-2.2,1.2-3.3c0.8-1.1,2-1.9,3.7-2.6
			c1.7-0.7,3.8-1,6.3-1c2.8,0,5,0.3,6.6,1s2.7,1.7,3.4,3.2c0.7,1.4,1,3.3,1,5.7c0,1.5,0,2.8,0,3.8s0,2.2,0,3.5
			c0,1.2,0.2,2.5,0.6,3.8c0.4,1.3,0.6,2.1,0.6,2.5c0,0.7-0.3,1.3-0.9,1.8c-0.6,0.5-1.3,0.8-2.1,0.8c-0.7,0-1.3-0.3-1.9-0.9
			C718.2,364,717.5,363.1,716.8,361.9z M716.4,352.6c-0.9,0.3-2.3,0.7-4.1,1.1c-1.8,0.4-3,0.7-3.7,0.8c-0.7,0.2-1.3,0.5-2,1.1
			c-0.6,0.5-0.9,1.3-0.9,2.2c0,1,0.4,1.8,1.1,2.5c0.7,0.7,1.7,1,2.9,1c1.3,0,2.4-0.3,3.5-0.8s1.9-1.3,2.4-2.1c0.6-1,0.9-2.6,0.9-4.8
			L716.4,352.6z"/>
		<path class="st0" d="M728.3,340.1l0.7,0l0-3.8c0-1,0-1.8,0.1-2.4c0.1-0.6,0.2-1.1,0.5-1.5c0.3-0.4,0.6-0.8,1.1-1.1
			c0.5-0.3,1-0.4,1.6-0.4c0.8,0,1.5,0.3,2.2,0.9c0.4,0.4,0.7,0.9,0.8,1.5c0.1,0.6,0.2,1.4,0.2,2.5l0,4.4l2.3,0
			c0.9,0,1.6,0.2,2.1,0.6c0.5,0.4,0.7,1,0.7,1.7c0,0.9-0.3,1.5-1,1.8c-0.7,0.3-1.7,0.5-2.9,0.5l-1.2,0l0,11.8c0,1,0,1.8,0.1,2.3
			c0.1,0.5,0.3,1,0.6,1.3c0.3,0.3,0.8,0.5,1.5,0.5c0.4,0,0.9-0.1,1.5-0.2c0.6-0.1,1.1-0.2,1.5-0.2c0.5,0,1,0.2,1.4,0.6
			c0.4,0.4,0.6,0.9,0.6,1.5c0,1-0.6,1.8-1.7,2.4s-2.7,0.8-4.9,0.8c-2,0-3.5-0.3-4.5-1s-1.7-1.6-2-2.8c-0.3-1.2-0.5-2.8-0.5-4.8
			l0-12.3l-0.8,0c-0.9,0-1.6-0.2-2.1-0.7c-0.5-0.4-0.7-1-0.7-1.7c0-0.7,0.3-1.2,0.8-1.7C726.6,340.3,727.3,340.1,728.3,340.1z"/>
		<path class="st0" d="M761.5,362l0-0.8c-0.8,1-1.6,1.8-2.4,2.4c-0.8,0.7-1.8,1.1-2.8,1.5c-1,0.3-2.1,0.5-3.4,0.5
			c-1.5,0-2.9-0.3-4.2-1s-2.2-1.5-2.8-2.7c-0.8-1.4-1.2-3.3-1.2-5.9l0-12.7c0-1.3,0.3-2.2,0.9-2.9c0.6-0.6,1.3-0.9,2.3-0.9
			c1,0,1.8,0.3,2.3,1c0.6,0.6,0.9,1.6,0.9,2.9l0,10.2c0,1.5,0.1,2.7,0.4,3.7c0.2,1,0.7,1.8,1.3,2.4c0.6,0.6,1.5,0.9,2.6,0.9
			c1.1,0,2.1-0.3,3-1s1.7-1.5,2.1-2.5c0.4-0.9,0.5-2.9,0.5-6l0-7.8c0-1.3,0.3-2.2,0.9-2.9c0.6-0.6,1.4-1,2.3-1s1.7,0.3,2.3,1
			c0.6,0.6,0.9,1.6,0.9,2.9l0,18.5c0,1.2-0.3,2.1-0.8,2.7c-0.6,0.6-1.3,0.9-2.1,0.9s-1.6-0.3-2.2-1C761.8,364,761.5,363.1,761.5,362
			z"/>
		<path class="st0" d="M780.3,356.4l0,5.3c0,1.3-0.3,2.3-0.9,2.9c-0.6,0.6-1.4,1-2.3,1c-0.9,0-1.7-0.3-2.3-1
			c-0.6-0.7-0.9-1.6-0.9-2.9l0-17.8c0-2.9,1-4.3,3.1-4.3c1.1,0,1.8,0.3,2.3,1c0.5,0.7,0.7,1.7,0.8,3c0.8-1.3,1.6-2.3,2.4-3
			c0.8-0.7,1.9-1,3.2-1s2.6,0.3,3.9,1c1.3,0.7,1.9,1.6,1.9,2.7c0,0.8-0.3,1.4-0.8,1.9c-0.5,0.5-1.1,0.8-1.7,0.8
			c-0.2,0-0.8-0.1-1.7-0.4c-0.9-0.3-1.7-0.4-2.4-0.4c-0.9,0-1.7,0.2-2.3,0.7c-0.6,0.5-1.1,1.2-1.4,2.2c-0.3,1-0.6,2.1-0.7,3.5
			C780.3,352.8,780.3,354.5,780.3,356.4z"/>
		<path class="st0" d="M809.9,362c-1.5,1.2-3,2.1-4.5,2.7c-1.4,0.6-3.1,0.9-4.9,0.9c-1.6,0-3.1-0.3-4.3-1s-2.2-1.5-2.9-2.6
			c-0.7-1.1-1-2.3-1-3.6c0-1.8,0.6-3.2,1.7-4.5s2.6-2.1,4.6-2.5c0.4-0.1,1.4-0.3,3-0.6c1.6-0.3,3-0.6,4.1-0.9c1.1-0.3,2.4-0.6,3.7-1
			c-0.1-1.7-0.4-2.9-1-3.7c-0.6-0.8-1.8-1.2-3.7-1.2c-1.6,0-2.8,0.2-3.7,0.7s-1.5,1.1-2.1,2c-0.6,0.9-1,1.5-1.2,1.8
			c-0.2,0.3-0.8,0.4-1.6,0.4c-0.7,0-1.3-0.2-1.9-0.7c-0.5-0.5-0.8-1.1-0.8-1.8c0-1.1,0.4-2.2,1.2-3.3c0.8-1.1,2-1.9,3.7-2.6
			c1.7-0.7,3.8-1,6.3-1c2.8,0,5,0.3,6.6,1c1.6,0.7,2.7,1.7,3.4,3.2c0.7,1.4,1,3.3,1,5.7c0,1.5,0,2.8,0,3.8s0,2.2,0,3.5
			c0,1.2,0.2,2.5,0.6,3.8c0.4,1.3,0.6,2.1,0.6,2.5c0,0.7-0.3,1.3-0.9,1.8c-0.6,0.5-1.3,0.8-2.1,0.8c-0.7,0-1.3-0.3-1.9-0.9
			C811.3,364.1,810.6,363.2,809.9,362z M809.5,352.8c-0.9,0.3-2.3,0.7-4.1,1.1c-1.8,0.4-3,0.7-3.7,0.8c-0.7,0.2-1.3,0.5-2,1.1
			c-0.6,0.5-0.9,1.3-0.9,2.2c0,1,0.4,1.8,1.1,2.5s1.7,1,2.9,1c1.3,0,2.4-0.3,3.5-0.8s1.9-1.3,2.4-2.1c0.6-1,0.9-2.6,0.9-4.8
			L809.5,352.8z"/>
		<path class="st0" d="M822.3,361.8l0-27.8c0-1.3,0.3-2.2,0.9-2.9c0.6-0.7,1.3-1,2.3-1s1.7,0.3,2.3,1c0.6,0.6,0.9,1.6,0.9,2.9
			l0,27.8c0,1.3-0.3,2.3-0.9,2.9c-0.6,0.6-1.4,1-2.3,1c-0.9,0-1.7-0.3-2.3-1C822.6,364,822.3,363,822.3,361.8z"/>
		<path class="st0" d="M873.8,354.9c0,2.1-0.5,3.9-1.6,5.6s-2.6,2.9-4.7,3.9c-2.1,0.9-4.5,1.4-7.3,1.4c-3.4,0-6.2-0.7-8.4-1.9
			c-1.6-0.9-2.8-2.2-3.8-3.7c-1-1.5-1.5-3-1.5-4.5c0-0.8,0.3-1.6,0.9-2.2c0.6-0.6,1.3-0.9,2.2-0.9c0.7,0,1.4,0.2,1.9,0.7
			c0.5,0.5,0.9,1.2,1.3,2.1c0.4,1.1,0.9,2,1.4,2.7c0.5,0.7,1.2,1.3,2.1,1.8c0.9,0.5,2.1,0.7,3.6,0.7c2.1,0,3.7-0.5,5-1.4
			c1.3-1,1.9-2.2,1.9-3.6c0-1.1-0.3-2.1-1-2.8c-0.7-0.7-1.6-1.3-2.7-1.6c-1.1-0.4-2.6-0.8-4.4-1.2c-2.5-0.6-4.5-1.3-6.2-2
			c-1.7-0.8-3-1.8-4-3.2s-1.5-3-1.5-5c0-1.9,0.5-3.6,1.6-5c1-1.5,2.5-2.6,4.5-3.4c2-0.8,4.3-1.2,6.9-1.2c2.1,0,3.9,0.3,5.5,0.8
			c1.5,0.5,2.8,1.2,3.8,2.1s1.8,1.8,2.2,2.7c0.5,1,0.7,1.9,0.7,2.8c0,0.8-0.3,1.6-0.9,2.2c-0.6,0.7-1.3,1-2.2,1
			c-0.8,0-1.4-0.2-1.8-0.6c-0.4-0.4-0.9-1.1-1.3-2c-0.6-1.3-1.4-2.3-2.2-3c-0.9-0.7-2.3-1.1-4.2-1.1c-1.8,0-3.2,0.4-4.3,1.2
			c-1.1,0.8-1.7,1.7-1.7,2.8c0,0.7,0.2,1.3,0.6,1.8c0.4,0.5,0.9,0.9,1.5,1.3c0.7,0.4,1.3,0.6,2,0.8c0.7,0.2,1.8,0.5,3.3,0.9
			c1.9,0.5,3.7,1,5.3,1.5c1.6,0.6,2.9,1.2,4,2c1.1,0.8,2,1.8,2.6,3C873.5,351.7,873.8,353.1,873.8,354.9z"/>
		<path class="st0" d="M883.3,343.7l4.1,14.3l3.8-13.3c0.4-1.4,0.7-2.3,0.9-2.8c0.2-0.5,0.6-1,1.1-1.5c0.5-0.5,1.3-0.7,2.2-0.7
			c1,0,1.7,0.2,2.2,0.7c0.5,0.5,0.9,1,1.1,1.5c0.2,0.5,0.5,1.5,0.9,2.8l3.8,13.3l4.2-14.3c0.3-1,0.5-1.8,0.7-2.2
			c0.2-0.5,0.5-0.9,0.9-1.2c0.4-0.4,1-0.5,1.8-0.5c0.8,0,1.4,0.3,2,0.8c0.6,0.5,0.8,1.2,0.8,1.9c0,0.7-0.2,1.6-0.7,3l-5.3,15.3
			c-0.5,1.3-0.8,2.2-1.1,2.8s-0.6,1.1-1.2,1.5c-0.5,0.5-1.3,0.7-2.2,0.7c-1,0-1.7-0.2-2.3-0.7c-0.6-0.5-1-1.1-1.2-1.8
			c-0.3-0.7-0.6-1.6-0.9-2.7l-3.6-12.5l-3.6,12.5c-0.5,1.7-1,3-1.5,3.9c-0.5,0.9-1.5,1.3-2.9,1.3c-0.7,0-1.3-0.1-1.8-0.4
			c-0.5-0.3-0.9-0.7-1.2-1.2c-0.3-0.5-0.6-1.1-0.9-1.8c-0.2-0.7-0.4-1.2-0.6-1.7l-5.2-15.3c-0.5-1.4-0.8-2.4-0.8-3
			c0-0.7,0.3-1.3,0.8-1.8s1.2-0.8,2-0.8c1.1,0,1.8,0.3,2.2,0.9C882.5,341.3,882.9,342.3,883.3,343.7z"/>
		<path class="st0" d="M935.6,354.4l-12.5,0c0,1.5,0.3,2.7,0.9,3.8c0.6,1.1,1.3,1.9,2.3,2.5c0.9,0.6,2,0.8,3.1,0.8
			c0.8,0,1.5-0.1,2.1-0.3c0.6-0.2,1.2-0.5,1.8-0.8c0.6-0.4,1.1-0.8,1.6-1.2c0.5-0.4,1.2-1,1.9-1.8c0.3-0.3,0.8-0.4,1.4-0.4
			c0.7,0,1.2,0.2,1.6,0.5c0.4,0.4,0.6,0.9,0.6,1.5c0,0.6-0.2,1.3-0.7,2c-0.5,0.8-1.1,1.5-2.1,2.2c-0.9,0.7-2.1,1.3-3.4,1.8
			c-1.4,0.5-3,0.7-4.8,0.7c-4.1,0-7.3-1.2-9.6-3.5s-3.4-5.5-3.4-9.5c0-1.9,0.3-3.6,0.9-5.3c0.6-1.6,1.4-3,2.5-4.2s2.4-2,4-2.7
			c1.6-0.6,3.3-0.9,5.3-0.9c2.5,0,4.6,0.5,6.4,1.6c1.8,1.1,3.1,2.4,4,4.1c0.9,1.7,1.3,3.4,1.3,5.1c0,1.6-0.5,2.7-1.4,3.1
			C938.5,354.2,937.2,354.4,935.6,354.4z M923,350.8l11.6,0c-0.2-2.2-0.7-3.8-1.8-4.9s-2.4-1.6-4-1.6c-1.6,0-2.9,0.5-3.9,1.6
			C923.9,347,923.3,348.6,923,350.8z"/>
		<path class="st0" d="M964.1,354.5l-12.5,0c0,1.5,0.3,2.7,0.9,3.8s1.3,1.9,2.3,2.5s2,0.8,3.1,0.8c0.8,0,1.5-0.1,2.1-0.3
			c0.6-0.2,1.2-0.5,1.8-0.8c0.6-0.4,1.1-0.8,1.6-1.2c0.5-0.4,1.2-1,1.9-1.8c0.3-0.3,0.8-0.4,1.4-0.4c0.7,0,1.2,0.2,1.6,0.5
			s0.6,0.9,0.6,1.5c0,0.6-0.2,1.3-0.7,2s-1.1,1.5-2.1,2.2c-0.9,0.7-2.1,1.3-3.4,1.8c-1.4,0.5-3,0.7-4.8,0.7c-4.1,0-7.3-1.2-9.6-3.5
			c-2.3-2.3-3.4-5.5-3.4-9.5c0-1.9,0.3-3.6,0.9-5.3c0.6-1.6,1.4-3,2.5-4.2c1.1-1.2,2.4-2,4-2.7s3.3-0.9,5.3-0.9
			c2.5,0,4.6,0.5,6.4,1.6c1.8,1.1,3.1,2.4,4,4.1c0.9,1.7,1.3,3.4,1.3,5.1c0,1.6-0.5,2.7-1.4,3.1C967,354.2,965.7,354.5,964.1,354.5z
			 M951.6,350.8l11.6,0c-0.2-2.2-0.7-3.8-1.8-4.9c-1-1.1-2.4-1.6-4-1.6c-1.6,0-2.9,0.5-3.9,1.6S951.8,348.7,951.6,350.8z"/>
		<path class="st0" d="M975.1,340.5h0.7l0-3.8c0-1,0-1.8,0.1-2.4c0.1-0.6,0.2-1.1,0.5-1.5c0.3-0.4,0.6-0.8,1.1-1.1
			c0.5-0.3,1-0.4,1.6-0.4c0.8,0,1.5,0.3,2.2,0.9c0.4,0.4,0.7,0.9,0.8,1.5c0.1,0.6,0.2,1.4,0.2,2.5l0,4.4l2.3,0
			c0.9,0,1.6,0.2,2.1,0.6s0.7,1,0.7,1.7c0,0.9-0.3,1.5-1,1.8c-0.7,0.3-1.7,0.5-2.9,0.5l-1.2,0l0,11.8c0,1,0,1.8,0.1,2.3
			c0.1,0.5,0.3,1,0.6,1.3c0.3,0.3,0.8,0.5,1.5,0.5c0.4,0,0.9-0.1,1.5-0.2c0.6-0.1,1.1-0.2,1.5-0.2c0.5,0,1,0.2,1.4,0.6
			c0.4,0.4,0.6,0.9,0.6,1.5c0,1-0.6,1.8-1.7,2.4s-2.7,0.8-4.9,0.8c-2,0-3.5-0.3-4.5-1s-1.7-1.6-2-2.8c-0.3-1.2-0.5-2.8-0.5-4.8
			l0-12.3l-0.8,0c-0.9,0-1.6-0.2-2.1-0.7c-0.5-0.4-0.7-1-0.7-1.7c0-0.7,0.3-1.2,0.8-1.7C973.4,340.7,974.1,340.5,975.1,340.5z"/>
	</g>
</g>
<path class="st2" d="M465.3,215.7c0,12.1-15.4,21.7-18.9,32.6c-3.7,11.3,2.9,28.1-4,37.5c-7,9.5-25,8.3-34.5,15.2
	c-9.5,6.9-13.9,24.4-25.2,28.1c-11,3.5-24.7-8-36.9-8c-12.1,0-26,11.5-36.9,7.9c-11.3-3.7-15.7-21.2-25.1-28.1
	c-9.5-7-27.5-5.8-34.5-15.3c-6.9-9.5-0.2-26.2-3.8-37.5c-3.5-11-18.9-20.5-18.8-32.7c0-12.1,15.4-21.7,18.9-32.6
	c3.7-11.3-2.9-28.1,4-37.5c7-9.5,25-8.3,34.5-15.2c9.5-6.9,13.9-24.4,25.2-28.1c11-3.5,24.7,8,36.9,8c12.1,0,26-11.5,36.9-7.9
	c11.3,3.7,15.7,21.2,25.1,28.1c9.5,7,27.5,5.8,34.5,15.3c6.9,9.5,0.2,26.2,3.8,37.5C450,194,465.3,203.5,465.3,215.7z"/>
<ellipse transform="matrix(1.598880e-03 -1 1 1.598880e-03 13.2662 453.1174)" class="st3" cx="233.6" cy="219.9" rx="112.4" ry="112.4"/>
<ellipse transform="matrix(1.598880e-03 -1 1 1.598880e-03 138.8708 439.4296)" class="st4" cx="289.5" cy="150.2" rx="112.4" ry="112.4"/>
<g>
	<g>
		<path class="st5" d="M314.2,239.1c-4.2,0-8.5-1.8-12.8-3.5c-4.1-1.7-8.3-3.4-12-3.4c-3.7,0-7.9,1.7-12,3.3
			c-5.6,2.3-11.4,4.6-16.7,2.9c-5.5-1.8-8.9-7.3-12.1-12.5c-2.3-3.8-4.5-7.4-7.4-9.4c-2.9-2.1-7.2-3.2-11.4-4.2
			c-6-1.5-12.1-3-15.5-7.6c-3.3-4.6-2.9-10.9-2.4-17c0.3-4.3,0.6-8.8-0.5-12.2c-1-3.2-3.7-6.4-6.6-9.8c-4-4.8-8.2-9.7-8.2-15.6
			c0-5.9,4.2-10.8,8.2-15.6c2.8-3.3,5.5-6.5,6.6-9.7c1.1-3.4,0.8-7.9,0.5-12.2c-0.4-6.1-0.9-12.4,2.5-17c3.4-4.6,9.6-6.1,15.5-7.6
			c4.2-1,8.5-2.1,11.4-4.2c2.8-2.1,5-5.6,7.4-9.4c3.3-5.3,6.6-10.7,12.2-12.5c5.3-1.7,11.1,0.7,16.7,2.9c4.1,1.7,8.3,3.4,12,3.4
			c3.7,0,7.9-1.7,12-3.3c5.6-2.3,11.4-4.6,16.7-2.9c5.5,1.8,8.9,7.3,12.1,12.5c2.3,3.8,4.5,7.4,7.4,9.4c2.9,2.1,7.2,3.2,11.4,4.2
			c6,1.5,12.1,3,15.5,7.6c3.3,4.6,2.9,10.9,2.4,17c-0.3,4.3-0.6,8.8,0.5,12.2c1,3.2,3.7,6.4,6.6,9.8c4,4.8,8.2,9.7,8.2,15.6
			c0,5.9-4.2,10.8-8.2,15.6c-2.8,3.3-5.5,6.5-6.6,9.7c-1.1,3.4-0.8,7.9-0.5,12.2c0.4,6.1,0.9,12.4-2.5,17c-3.4,4.6-9.6,6.1-15.5,7.6
			c-4.2,1-8.5,2.1-11.4,4.2c-2.8,2.1-5,5.6-7.4,9.4c-3.3,5.3-6.6,10.7-12.2,12.5C316.8,238.9,315.5,239.1,314.2,239.1z M289.4,228.7
			c4.4,0,8.9,1.9,13.3,3.6c5.3,2.1,10.2,4.2,14.3,2.9c4.3-1.4,7.2-6.1,10.3-11c2.4-3.9,4.9-7.9,8.3-10.4c3.4-2.5,8.1-3.6,12.6-4.7
			c5.6-1.4,10.9-2.7,13.5-6.3c2.6-3.5,2.2-9,1.8-14.7c-0.3-4.7-0.7-9.5,0.7-13.5c1.3-3.9,4.3-7.5,7.2-10.9c3.6-4.3,7.4-8.7,7.4-13.3
			c0-4.7-3.7-9.1-7.4-13.4c-2.9-3.5-6-7-7.2-10.9c-1.3-4.1-1-8.9-0.6-13.6c0.4-5.7,0.8-11.1-1.8-14.7c-2.6-3.6-7.9-4.9-13.5-6.3
			c-4.5-1.1-9.2-2.3-12.6-4.8c-3.4-2.5-5.9-6.5-8.3-10.4c-3.1-5-5.9-9.6-10.2-11.1c-4.1-1.3-9,0.7-14.3,2.8
			c-4.4,1.8-8.9,3.6-13.3,3.6c-4.4,0-8.9-1.9-13.3-3.6c-5.3-2.1-10.2-4.2-14.3-2.9c-4.3,1.4-7.2,6.1-10.3,11
			c-2.4,3.9-4.9,7.9-8.3,10.4c-3.4,2.5-8.1,3.6-12.6,4.7c-5.6,1.4-10.9,2.7-13.5,6.3c-2.6,3.5-2.2,9-1.8,14.7
			c0.3,4.7,0.7,9.5-0.7,13.5c-1.3,3.9-4.3,7.5-7.3,10.9c-3.6,4.3-7.4,8.7-7.4,13.3c0,4.7,3.7,9.1,7.4,13.4c2.9,3.5,6,7,7.2,10.9
			c1.3,4.1,1,8.9,0.6,13.5c-0.4,5.7-0.8,11.1,1.8,14.7c2.6,3.6,7.9,4.9,13.5,6.3c4.5,1.1,9.2,2.3,12.6,4.8c3.4,2.5,5.9,6.5,8.3,10.4
			c3,5,5.9,9.6,10.2,11.1c4.1,1.3,9-0.7,14.3-2.8C280.4,230.5,285,228.7,289.4,228.7z"/>
		<g>
			<g>
				<path class="st3" d="M259.9,93.4l28,52.5c0.2,0.4,0.1,0.8-0.3,1c-0.3,0.2-0.8,0.1-1-0.3L255.4,96c-0.8-1.2-0.4-2.8,0.8-3.6
					c1.2-0.8,2.8-0.4,3.6,0.8C259.8,93.3,259.8,93.4,259.9,93.4z"/>
				<path class="st3" d="M319.1,206.9l-28-52.5c-0.2-0.4-0.1-0.8,0.3-1c0.3-0.2,0.8-0.1,1,0.3l31.3,50.6c0.8,1.2,0.4,2.8-0.8,3.6
					c-1.2,0.8-2.8,0.4-3.6-0.8C319.2,207,319.2,207,319.1,206.9z"/>
			</g>
			<g>
				<path class="st3" d="M235.5,115.8l50.5,31.5c0.3,0.2,0.4,0.7,0.2,1c-0.2,0.3-0.6,0.4-1,0.3l-52.4-28.2c-1.3-0.7-1.7-2.3-1.1-3.5
					c0.7-1.3,2.3-1.7,3.5-1.1C235.4,115.8,235.4,115.8,235.5,115.8z"/>
				<path class="st3" d="M343.5,184.5L293,153c-0.3-0.2-0.4-0.7-0.2-1c0.2-0.3,0.6-0.4,1-0.3l52.4,28.2c1.3,0.7,1.7,2.3,1.1,3.5
					c-0.7,1.3-2.3,1.7-3.5,1.1C343.6,184.5,343.6,184.5,343.5,184.5z"/>
			</g>
			<g>
				<path class="st3" d="M225.5,147.5l59.5,2c0.4,0,0.7,0.3,0.7,0.7c0,0.4-0.3,0.7-0.7,0.7l-59.5,1.8c-1.4,0-2.6-1.1-2.7-2.5
					c0-1.4,1.1-2.6,2.5-2.7C225.4,147.5,225.5,147.5,225.5,147.5z"/>
				<path class="st3" d="M353.5,152.9l-59.5-2c-0.4,0-0.7-0.3-0.7-0.7c0-0.4,0.3-0.7,0.7-0.7l59.5-1.8c1.4,0,2.6,1.1,2.7,2.5
					c0,1.4-1.1,2.6-2.5,2.7C353.6,152.9,353.5,152.9,353.5,152.9z"/>
			</g>
			<g>
				<path class="st3" d="M232.8,179.8l52.5-28c0.4-0.2,0.8-0.1,1,0.3c0.2,0.3,0.1,0.8-0.3,1l-50.6,31.3c-1.2,0.8-2.8,0.4-3.6-0.8
					c-0.8-1.2-0.4-2.8,0.8-3.6C232.7,179.9,232.7,179.8,232.8,179.8z"/>
				<path class="st3" d="M346.2,120.5l-52.5,28c-0.4,0.2-0.8,0.1-1-0.3c-0.2-0.3-0.1-0.8,0.3-1l50.6-31.3c1.2-0.8,2.8-0.4,3.6,0.8
					c0.8,1.2,0.4,2.8-0.8,3.6C346.3,120.5,346.3,120.5,346.2,120.5z"/>
			</g>
			<g>
				<path class="st3" d="M255.2,204.2l31.5-50.5c0.2-0.3,0.7-0.4,1-0.2c0.3,0.2,0.4,0.6,0.3,1l-28.2,52.4c-0.7,1.3-2.3,1.7-3.5,1.1
					c-1.3-0.7-1.7-2.3-1.1-3.5C255.1,204.3,255.2,204.3,255.2,204.2z"/>
				<path class="st3" d="M323.8,96.1l-31.5,50.5c-0.2,0.3-0.7,0.4-1,0.2c-0.3-0.2-0.4-0.6-0.3-1l28.2-52.4c0.7-1.3,2.3-1.7,3.5-1.1
					c1.3,0.7,1.7,2.3,1.1,3.5C323.9,96,323.9,96.1,323.8,96.1z"/>
			</g>
			<g>
				<path class="st3" d="M286.8,214.1l2-59.5c0-0.4,0.3-0.7,0.7-0.7c0.4,0,0.7,0.3,0.7,0.7l1.8,59.5c0,1.4-1.1,2.6-2.5,2.7
					c-1.4,0-2.6-1.1-2.7-2.5C286.8,214.2,286.8,214.2,286.8,214.1z"/>
				<path class="st3" d="M292.2,86.2l-2,59.5c0,0.4-0.3,0.7-0.7,0.7c-0.4,0-0.7-0.3-0.7-0.7L287,86.2c0-1.4,1.1-2.6,2.5-2.7
					c1.4,0,2.6,1.1,2.7,2.5C292.2,86.1,292.2,86.2,292.2,86.2z"/>
			</g>
		</g>
	</g>
</g>
<line class="st6" x1="1000.8" y1="113.6" x2="1000.8" y2="164.3"/>
</svg>
